<svg xmlns="http://www.w3.org/2000/svg" version="1.0" width="570.000000pt" height="438.000000pt" viewBox="0 0 570.000000 438.000000" preserveAspectRatio="xMidYMid meet">

<g transform="translate(0.000000,438.000000) scale(0.100000,-0.100000)" fill="#000000" stroke="none">
<path d="M1092 3962 c-10 -7 -12 -144 -10 -653 l3 -644 165 0 165 0 3 488 2 487 68 0 67 0 -3 -478 c-2 -404 -1 -481 11 -491 10 -8 65 -11 183 -9 l169 3 3 488 2 487 65 0 65 0 2 -487 3 -488 170 0 170 0 3 594 c1 327 -1 597 -5 600 -5 3 -16 20 -25 36 -9 17 -28 39 -43 50 -26 19 -44 20 -623 23 -328 1 -603 -2 -610 -6z"/>
<path d="M2538 3963 c-17 -4 -18 -44 -18 -648 0 -577 2 -643 16 -649 9 -3 85 -6 170 -6 140 0 154 2 154 18 3 257 -1 1275 -5 1282 -6 10 -282 12 -317 3z"/>
<path d="M3017 3958 c-16 -12 -17 -29 -15 -163 l3 -150 388 -3 387 -2 -2 -328 -3 -327 -204 -3 c-206 -2 -237 2 -212 32 9 11 11 72 9 231 -3 196 -5 218 -21 230 -14 10 -58 13 -170 12 -84 -1 -158 -6 -164 -10 -10 -6 -13 -99 -13 -407 0 -354 2 -399 16 -404 9 -3 226 -6 482 -6 432 0 470 2 507 19 48 22 95 64 95 85 0 8 5 18 10 21 6 4 10 197 10 545 l0 539 -22 24 c-13 13 -43 35 -68 48 l-45 24 -475 3 c-381 3 -479 1 -493 -10z"/>
<path d="M4287 3963 c-4 -3 -7 -298 -7 -655 l0 -648 165 0 165 0 0 649 c0 582 -2 649 -16 655 -21 8 -299 8 -307 -1z"/>
<path d="M3932 2409 c-32 -12 -75 -65 -89 -108 -12 -39 -18 -1042 -6 -1115 4 -27 19 -53 48 -82 l42 -44 131 0 131 0 35 30 c68 60 66 39 66 637 0 329 -4 552 -10 574 -17 62 -60 97 -132 109 -77 12 -185 12 -216 -1z"/>
<path d="M1507 2403 c-30 -8 -76 -63 -87 -102 -6 -22 -10 -245 -10 -574 0 -598 -2 -577 66 -637 l35 -30 129 0 c124 0 130 1 160 26 68 58 65 29 65 649 0 610 3 576 -56 645 -20 24 -26 25 -153 27 -72 1 -139 -1 -149 -4z"/>
<path d="M2101 2393 c-19 -10 -44 -31 -55 -46 -21 -28 -21 -38 -21 -612 0 -578 0 -584 21 -612 42 -56 74 -66 202 -64 131 2 160 13 199 71 l23 33 0 564 c0 610 1 602 -55 653 -25 24 -34 25 -153 28 -107 3 -132 0 -161 -15z"/>
</g>
</svg>